<?xml version="1.0" encoding="utf-8"?>
<!-- Generator: Adobe Illustrator 16.0.0, SVG Export Plug-In . SVG Version: 6.00 Build 0)  -->
<!DOCTYPE svg PUBLIC "-//W3C//DTD SVG 1.1//EN" "http://www.w3.org/Graphics/SVG/1.1/DTD/svg11.dtd">
<svg version="1.1" id="Layer_1" xmlns="http://www.w3.org/2000/svg" xmlns:xlink="http://www.w3.org/1999/xlink" x="0px" y="0px"
	 width="16px" height="16px" viewBox="0 0 16 16" enable-background="new 0 0 16 16" xml:space="preserve">
<g>
	<ellipse fill="#1A1A1A" cx="8.001" cy="8" rx="7.766" ry="7.964"/>
	<g>
		<path fill="#FFFFFF" d="M13.412,5.519c0-1.235-0.977-2.237-2.182-2.237c-0.417,0-0.802,0.121-1.131,0.326
			c-0.515-0.594-1.264-0.97-2.102-0.97c-0.835,0-1.587,0.376-2.102,0.97C5.566,3.402,5.181,3.281,4.765,3.281
			c-1.205,0-2.182,1.002-2.182,2.237c0,0.952,0.58,1.761,1.394,2.083c0,1.767,0,3.533,0,5.301c2.647-0.607,5.39-0.607,8.037,0
			c0-1.768,0-3.534,0-5.301C12.833,7.279,13.412,6.471,13.412,5.519z"/>
		<path fill="#ADB5BD" d="M12.02,11.303v1.603c-2.646-0.607-5.393-0.607-8.038,0v-1.603C6.629,10.696,9.373,10.696,12.02,11.303z"/>
		<path fill="#CED5E0" d="M3.329,6.079c0.027,0.063,0.059,0.126,0.095,0.184C3.458,6.318,3.499,6.376,3.538,6.43
			c0.04,0.054,0.086,0.104,0.133,0.151c0.045,0.047,0.098,0.092,0.15,0.132C3.875,6.752,3.93,6.79,3.988,6.825
			C4.046,6.856,4.103,6.888,4.164,6.91c0.058,0.024,0.124,0.043,0.186,0.063c0.062,0.019,0.125,0.028,0.19,0.038
			c0.065,0.006,0.13,0.012,0.191,0.012c0.03,0,0.064,0,0.099-0.003C4.86,7.018,4.891,7.014,4.925,7.012
			c0.126-0.02,0.25-0.055,0.367-0.102c0.059-0.025,0.114-0.054,0.169-0.085c0.052-0.032,0.11-0.07,0.167-0.108l0.343-0.224
			l0.073-0.051l0.062,0.068l0.2,0.226C6.37,6.809,6.438,6.888,6.503,6.957c0.067,0.076,0.131,0.13,0.206,0.193
			C6.784,7.207,6.86,7.264,6.94,7.312c0.317,0.198,0.69,0.303,1.064,0.3c0.039-0.003,0.098,0,0.141-0.006
			C8.189,7.602,8.234,7.599,8.28,7.592c0.093-0.013,0.182-0.031,0.275-0.056c0.179-0.051,0.351-0.127,0.511-0.225
			c0.161-0.098,0.309-0.215,0.438-0.354c0.064-0.069,0.133-0.148,0.197-0.221l0.2-0.226l0.062-0.068l0.073,0.051l0.343,0.224
			c0.059,0.038,0.113,0.076,0.17,0.108c0.052,0.031,0.11,0.06,0.169,0.085c0.117,0.05,0.24,0.086,0.367,0.102
			c0.061,0.009,0.129,0.016,0.19,0.012c0.071,0,0.13-0.006,0.195-0.01c0.064-0.009,0.126-0.021,0.19-0.037
			c0.061-0.017,0.126-0.034,0.185-0.063c0.063-0.022,0.12-0.054,0.176-0.085c0.06-0.032,0.11-0.069,0.166-0.111
			c0.053-0.041,0.102-0.085,0.151-0.133c0.047-0.048,0.093-0.098,0.133-0.15c0.043-0.055,0.08-0.111,0.113-0.169
			c0.037-0.057,0.065-0.119,0.096-0.183c-0.021,0.065-0.046,0.129-0.074,0.192c-0.03,0.063-0.061,0.128-0.098,0.184
			c-0.037,0.06-0.08,0.113-0.123,0.168c-0.043,0.054-0.097,0.104-0.146,0.15c-0.053,0.049-0.108,0.092-0.164,0.13
			c-0.058,0.038-0.117,0.076-0.182,0.107c-0.062,0.035-0.126,0.061-0.193,0.083c-0.068,0.024-0.136,0.04-0.204,0.054
			c-0.07,0.012-0.145,0.022-0.209,0.024c-0.071,0.008-0.143,0.004-0.214,0c-0.141-0.009-0.282-0.04-0.415-0.092
			c-0.067-0.024-0.133-0.053-0.197-0.087c-0.062-0.036-0.12-0.07-0.179-0.105L9.936,6.682l0.139-0.022L9.881,6.891
			c-0.064,0.076-0.127,0.152-0.197,0.23C9.615,7.2,9.539,7.273,9.459,7.343c-0.08,0.066-0.164,0.134-0.253,0.187
			c-0.177,0.113-0.37,0.199-0.571,0.259C8.534,7.816,8.432,7.842,8.331,7.854c-0.053,0.01-0.105,0.014-0.158,0.02
			C8.118,7.88,8.078,7.877,8.019,7.88C7.601,7.877,7.184,7.757,6.83,7.532C6.74,7.479,6.657,7.412,6.577,7.346
			C6.5,7.279,6.417,7.2,6.352,7.125c-0.071-0.08-0.13-0.155-0.198-0.23L5.96,6.664l0.139,0.021L5.748,6.895
			C5.689,6.928,5.634,6.964,5.569,6.999c-0.064,0.034-0.13,0.063-0.198,0.088c-0.132,0.05-0.273,0.082-0.416,0.092
			C4.921,7.183,4.885,7.183,4.848,7.185c-0.033,0-0.067,0-0.104-0.002c-0.07-0.004-0.141-0.014-0.209-0.025
			C4.465,7.141,4.395,7.125,4.33,7.103C4.266,7.076,4.198,7.052,4.136,7.021C4.074,6.988,4.013,6.951,3.954,6.913
			c-0.058-0.041-0.111-0.085-0.164-0.13C3.741,6.736,3.689,6.686,3.646,6.632C3.603,6.578,3.56,6.524,3.522,6.465
			c-0.04-0.058-0.07-0.121-0.098-0.184C3.375,6.211,3.351,6.146,3.329,6.079z"/>
	</g>
</g>
</svg>
